HIERARCHY
ROOT ui
{
	 OFFSET 0 0 0
	 CHANNELS 3 XPosition YPosition Z Position
	 EndSite
	 {
	 OFFSET 0 -1 0
	 }
}
ROOT li
{
	 OFFSET 0 0 0
	 CHANNELS 3 XPosition YPosition Z Position
	 EndSite
	 {
	 OFFSET 0 -1 0
	 }
}
ROOT ul
{
	 OFFSET 0 0 0
	 CHANNELS 3 XPosition YPosition Z Position
	 EndSite
	 {
	 OFFSET 0 -1 0
	 }
}
ROOT ll
{
	 OFFSET 0 0 0
	 CHANNELS 3 XPosition YPosition Z Position
	 EndSite
	 {
	 OFFSET 0 -1 0
	 }
}
ROOT tt
{
	 OFFSET 0 0 0
	 CHANNELS 3 XPosition YPosition Z Position
	 EndSite
	 {
	 OFFSET 0 -1 0
	 }
}
ROOT tb
{
	 OFFSET 0 0 0
	 CHANNELS 3 XPosition YPosition Z Position
	 EndSite
	 {
	 OFFSET 0 -1 0
	 }
}
ROOT td
{
	 OFFSET 0 0 0
	 CHANNELS 3 XPosition YPosition Z Position
	 EndSite
	 {
	 OFFSET 0 -1 0
	 }
}
ROOT v
{
	 OFFSET 0 0 0
	 CHANNELS 3 XPosition YPosition Z Position
	 EndSite
	 {
	 OFFSET 0 -1 0
	 }
}
ROOT bn
{
	 OFFSET 0 0 0
	 CHANNELS 3 XPosition YPosition Z Position
	 EndSite
	 {
	 OFFSET 0 -1 0
	 }
}
MOTION
Frames: 10
Frame Time: 0.002
0.0026923038959503175	-8.785840272903442E-4	0		0.8741130981445312	-3.158197509765625	0		-0.901675537109375	-0.3284130859375	0		-0.12462834167480469	-2.420029052734375	0		0.4438230285644531	-0.96206103515625	0		2.371007080078125	-0.6638490600585938	0		4.112962890625	-0.6858837890625	0		5.74670703125	0.26000982666015626	0		-0.16516047668457032	5.8874736328125	0		
-0.0018286910057067872	0.003036041021347046	0		0.948497314453125	-3.181817626953125	0		-0.8981934814453125	-0.3255840148925781	0		-0.14600129699707032	-2.40599755859375	0		0.42428997802734375	-0.9640254516601563	0		2.35162158203125	-0.643753173828125	0		4.1053662109375	-0.6948240356445312	0		5.7381494140625	0.26013433837890626	0		-0.19894496154785157	5.88059033203125	0		
0.01162001895904541	-0.002176991939544678	0		0.9041921997070312	-3.166589111328125	0		-0.8936771850585937	-0.3227623291015625	0		-0.10136916351318359	-2.396435546875	0		0.451868896484375	-0.9553244018554687	0		2.4189833984375	-0.66427294921875	0		4.12064794921875	-0.7259244995117188	0		5.7476181640625	0.2591348876953125	0		-0.1314674530029297	5.90598681640625	0		
0.00716590404510498	0.0017404910326004029	0		0.9438181762695312	-3.165953369140625	0		-0.8601784057617188	-0.3271423034667969	0		-0.1056822509765625	-2.38352197265625	0		0.4414386901855469	-0.9523502197265625	0		2.3647353515625	-0.6339251098632812	0		4.11824755859375	-0.716894775390625	0		5.74319091796875	0.26823785400390626	0		-0.1832457275390625	5.89123193359375	0		
-2.795490026473999E-4	0.002684118986129761	0		0.932515625	-3.1589521484375	0		-0.8636416015625	-0.3302542419433594	0		-0.11097467041015625	-2.371596435546875	0		0.46595947265625	-0.9606175537109375	0		2.384218017578125	-0.6460961303710937	0		4.1187353515625	-0.7278828735351562	0		5.74372998046875	0.26830740356445315	0		-0.19796240234375	5.88021923828125	0		
0.005265220165252686	-0.0014560250043869018	0		0.9441218872070313	-3.16810546875	0		-0.8990506591796875	-0.32913388061523435	0		-0.10226641082763673	-2.36276123046875	0		0.422660888671875	-0.9464009399414063	0		2.37683203125	-0.6430725708007813	0		4.1202490234375	-0.7388750610351562	0		5.75923828125	0.26027291870117186	0		-0.19756915283203125	5.88010791015625	0		
0.005858469009399414	-0.001551435947418213	0		0.8839268798828125	-3.1507490234375	0		-0.8624557495117188	-0.33050643920898437	0		-0.09052832794189453	-2.3519365234375	0		0.45025299072265623	-0.95067236328125	0		2.425386962890625	-0.6514336547851562	0		4.11186669921875	-0.7377943115234376	0		5.7448798828125	0.2684486083984375	0		-0.1621053466796875	5.8857626953125	0		
0.005521121025085449	0.006371604919433594	0		0.8985844116210937	-3.155906005859375	0		-0.8859016723632812	-0.3394468688964844	0		-0.14173118591308595	-2.333662353515625	0		0.42694195556640624	-0.9425775146484375	0		2.366193603515625	-0.6250357055664062	0		4.09744140625	-0.7446676635742188	0		5.76941650390625	0.2593543090820313	0		-0.16165814208984375	5.88567431640625	0		
0.010099346160888673	0.0012738139629364013	0		0.9402965087890625	-3.153237548828125	0		-0.8612183837890625	-0.33070574951171877	0		-0.07999174499511719	-2.324158447265625	0		0.5005216064453125	-0.9511420288085938	0		2.393669677734375	-0.64723291015625	0		4.12799951171875	-0.754847412109375	0		5.76508544921875	0.2684632568359375	0		-0.16119294738769532	5.885599609375	0		
0.002716085910797119	0.0022735109329223633	0		0.9409781494140625	-3.153271728515625	0		-0.8957313232421875	-0.34953927612304686	0		-0.11219725799560547	-2.304989013671875	0		0.4911739196777344	-0.948117431640625	0		2.444423828125	-0.6285792236328125	0		4.1135751953125	-0.7617098999023437	0		5.76163427734375	0.2605668334960938	0		-0.16071748352050783	5.88554052734375	0		
